<svg width="192" height="192" viewBox="0 0 192 192" fill="none" xmlns="http://www.w3.org/2000/svg">
  <rect width="192" height="192" rx="24" fill="#1a1a2e"/>
  <rect x="16" y="16" width="160" height="160" rx="16" fill="#0f0f23"/>
  <!-- Calendar/Attendance Icon -->
  <rect x="40" y="40" width="112" height="96" rx="8" fill="#3b82f6"/>
  <rect x="40" y="40" width="112" height="24" rx="8" fill="#1e40af"/>
  <!-- Calendar dots -->
  <circle cx="56" cy="52" r="2" fill="#ffffff"/>
  <circle cx="72" cy="52" r="2" fill="#ffffff"/>
  <circle cx="88" cy="52" r="2" fill="#ffffff"/>
  <circle cx="104" cy="52" r="2" fill="#ffffff"/>
  <circle cx="120" cy="52" r="2" fill="#ffffff"/>
  <circle cx="136" cy="52" r="2" fill="#ffffff"/>
  <!-- Calendar grid -->
  <rect x="48" y="72" width="96" height="2" fill="#ffffff" opacity="0.3"/>
  <rect x="48" y="88" width="96" height="2" fill="#ffffff" opacity="0.3"/>
  <rect x="48" y="104" width="96" height="2" fill="#ffffff" opacity="0.3"/>
  <rect x="64" y="72" width="2" height="40" fill="#ffffff" opacity="0.3"/>
  <rect x="80" y="72" width="2" height="40" fill="#ffffff" opacity="0.3"/>
  <rect x="96" y="72" width="2" height="40" fill="#ffffff" opacity="0.3"/>
  <rect x="112" y="72" width="2" height="40" fill="#ffffff" opacity="0.3"/>
  <!-- Checkmark -->
  <circle cx="80" cy="140" r="20" fill="#10b981"/>
  <path d="M70 140L76 146L90 132" stroke="white" stroke-width="3" stroke-linecap="round" stroke-linejoin="round"/>
</svg>